<svg width="356" height="110" viewBox="0 0 356 110" fill="none" xmlns="http://www.w3.org/2000/svg">
<path d="M132.65 109.94H108.57L95.21 87.94H37.43L24.08 109.94H0L44.18 37L24.06 0H47.49L56.99 17.48C60.3023 23.6078 61.9596 30.4933 61.7982 37.4571C61.6369 44.4209 59.6625 51.2223 56.07 57.19L50.19 66.88H82.46L76.59 57.19C72.9887 51.2261 71.0075 44.4249 70.8427 37.4599C70.6778 30.4949 72.3349 23.6077 75.65 17.48L85.15 0H108.58L88.46 37L132.65 109.94Z" fill="#DB3900"/>
<path d="M161.03 92.89V92.38C161.103 90.754 160.883 89.128 160.38 87.58C160.146 87.0485 159.748 86.6063 159.244 86.3182C158.74 86.0302 158.157 85.9116 157.58 85.98C156.923 85.9638 156.277 86.1578 155.738 86.5337C155.198 86.9095 154.793 87.4478 154.58 88.07C153.879 90.2134 153.58 92.468 153.7 94.72C153.7 97.77 154.12 99.93 154.98 101.2C155.421 101.841 156.023 102.355 156.725 102.69C157.427 103.025 158.204 103.17 158.98 103.11C160.77 103.11 162.86 102.3 165.26 100.66C166.077 101.158 166.762 101.843 167.26 102.66C167.842 103.479 168.269 104.397 168.52 105.37C167.122 106.765 165.45 107.855 163.61 108.57C161.669 109.357 159.595 109.764 157.5 109.77C153.5 109.77 150.423 108.417 148.27 105.71C146.117 103.003 145.043 99.2234 145.05 94.37C145.05 89.5167 146.287 85.85 148.76 83.37C149.885 82.1784 151.243 81.2313 152.751 80.5879C154.258 79.9444 155.881 79.6183 157.52 79.63C160.463 79.4882 163.357 80.4231 165.66 82.26C166.654 83.0746 167.448 84.105 167.984 85.273C168.519 86.4409 168.781 87.7156 168.75 89C168.79 89.5678 168.711 90.1377 168.518 90.6732C168.325 91.2087 168.023 91.6981 167.63 92.11C166.764 92.8629 165.635 93.2437 164.49 93.17C163.33 93.1944 162.171 93.1005 161.03 92.89Z" fill="#003049"/>
<path d="M195.24 82.96C197.98 85.7 199.35 89.61 199.35 94.69C199.35 99.77 197.98 103.683 195.24 106.43C192.759 108.602 189.573 109.8 186.275 109.8C182.977 109.8 179.791 108.602 177.31 106.43C174.57 103.683 173.2 99.77 173.2 94.69C173.2 89.61 174.57 85.7 177.31 82.96C179.805 80.8169 182.986 79.6387 186.275 79.6387C189.564 79.6387 192.745 80.8169 195.24 82.96ZM182.82 88.27C182.144 90.3503 181.843 92.5342 181.93 94.72C181.841 96.896 182.142 99.0703 182.82 101.14C183.114 101.812 183.597 102.384 184.21 102.786C184.824 103.187 185.542 103.401 186.275 103.401C187.008 103.401 187.726 103.187 188.34 102.786C188.953 102.384 189.437 101.812 189.73 101.14C190.404 99.0695 190.702 96.8953 190.61 94.72C190.7 92.5349 190.402 90.3511 189.73 88.27C189.443 87.5905 188.963 87.0107 188.348 86.603C187.734 86.1953 187.012 85.9779 186.275 85.9779C185.538 85.9779 184.816 86.1953 184.202 86.603C183.587 87.0107 183.107 87.5905 182.82 88.27Z" fill="#003049"/>
<path d="M204.21 84.4401C204.4 83.5688 204.738 82.7366 205.21 81.98C205.631 81.2484 206.172 80.5926 206.81 80.04C208.353 80.1143 209.839 80.6413 211.084 81.5555C212.329 82.4696 213.277 83.7303 213.81 85.1801C215.263 81.8001 217.66 80.1067 221 80.1C222.254 80.0972 223.504 80.2518 224.72 80.5601C224.685 81.9116 224.49 83.2542 224.14 84.5601C223.825 85.9616 223.306 87.3093 222.6 88.5601C221.674 88.2769 220.717 88.1057 219.75 88.05C218.729 88.0678 217.732 88.364 216.866 88.9068C216.001 89.4496 215.3 90.2183 214.84 91.1301V109.01C213.464 109.258 212.068 109.372 210.67 109.35C209.216 109.367 207.764 109.253 206.33 109.01V90.3201C206.32 87.4701 205.61 85.5101 204.21 84.4401Z" fill="#003049"/>
<path d="M253.71 90.04V101.91C253.592 103.892 254.073 105.864 255.09 107.57C253.693 108.752 251.92 109.398 250.09 109.39C248.24 109.39 246.97 108.96 246.26 108.08C245.472 106.902 245.102 105.493 245.21 104.08V91.67C245.283 90.6107 245.083 89.5503 244.63 88.59C244.424 88.2527 244.127 87.9801 243.773 87.8033C243.42 87.6265 243.024 87.5526 242.63 87.59C241.738 87.6258 240.863 87.8419 240.057 88.2251C239.251 88.6084 238.531 89.1509 237.94 89.82V108.95C236.557 109.195 235.154 109.309 233.75 109.29C232.306 109.306 230.864 109.192 229.44 108.95V80.5L229.83 80.1H233.03C234.071 80.0215 235.105 80.3272 235.936 80.9592C236.767 81.5912 237.338 82.5058 237.54 83.53C240.32 81.17 243.03 79.98 245.65 79.98C246.799 79.9096 247.948 80.1238 248.994 80.6035C250.041 81.0832 250.953 81.8136 251.65 82.73C253.119 84.8753 253.842 87.4435 253.71 90.04Z" fill="#003049"/>
<path d="M283.92 97.46H268.73C268.743 98.9832 269.221 100.466 270.1 101.71C270.9 102.71 272.31 103.23 274.33 103.23C276.823 103.119 279.27 102.517 281.53 101.46C282.835 102.858 283.656 104.639 283.87 106.54C280.571 108.774 276.653 109.915 272.67 109.8C270.567 109.848 268.48 109.427 266.56 108.57C264.949 107.836 263.582 106.656 262.62 105.17C260.828 101.904 259.96 98.212 260.11 94.4901C259.951 90.6812 261.055 86.9266 263.25 83.8101C265.337 81.0301 268.363 79.64 272.33 79.64C276.297 79.64 279.333 80.7734 281.44 83.04C283.593 85.4184 284.731 88.5443 284.61 91.7501C284.631 93.6754 284.399 95.5951 283.92 97.46ZM275.81 87.15C275.479 86.6683 275.029 86.2813 274.502 86.027C273.976 85.7727 273.393 85.66 272.81 85.7001C272.229 85.6507 271.645 85.756 271.119 86.0054C270.592 86.2549 270.14 86.6395 269.81 87.1201C269.069 88.489 268.687 90.0234 268.7 91.58H276.7V90.89C276.761 89.578 276.434 88.2772 275.76 87.15H275.81Z" fill="#003049"/>
<path d="M289.69 84.4401C289.88 83.569 290.219 82.7369 290.69 81.98C291.105 81.2439 291.646 80.5871 292.29 80.04C293.833 80.1143 295.319 80.6413 296.564 81.5555C297.809 82.4696 298.757 83.7303 299.29 85.1801C300.73 81.8001 303.127 80.1067 306.48 80.1C307.731 80.0981 308.977 80.2526 310.19 80.5601C310.159 81.9112 309.968 83.254 309.62 84.5601C309.305 85.9616 308.786 87.3093 308.08 88.5601C307.151 88.2761 306.19 88.1049 305.22 88.05C304.199 88.07 303.203 88.3671 302.338 88.9097C301.473 89.4522 300.772 90.2197 300.31 91.1301V109.01C298.934 109.259 297.538 109.372 296.14 109.35C294.686 109.366 293.234 109.252 291.8 109.01V90.3201C291.8 87.4734 291.097 85.5134 289.69 84.4401Z" fill="#003049"/>
<path d="M162.92 54.6701C161.54 54.6701 160.51 54.67 159.85 54.6L156.55 65.7301C154.857 66.0833 153.129 66.2377 151.4 66.1901C149.367 66.2548 147.337 65.9707 145.4 65.35L145.02 64.7301L161.92 13.2101C164.238 12.8797 166.578 12.7259 168.92 12.75C171.338 12.6989 173.755 12.8763 176.14 13.28L192.73 64.89C190.861 65.879 188.774 66.3812 186.66 66.35C183.993 66.35 182.123 65.8867 181.05 64.96C179.977 64.0334 179.053 62.2701 178.28 59.6701L176.82 54.6C176.15 54.65 175.16 54.6701 173.82 54.6701H162.92ZM162.69 45.0001L165.76 44.9201H171.37C171.62 44.9201 172.07 44.9201 172.71 44.9201C173.35 44.9201 173.82 44.9201 174.13 44.9201L172.83 40.16C171.597 35.86 170.187 30.5867 168.6 24.3401H168.14C167.727 26.5401 166.5 31.4301 164.46 39.0101L162.69 45.0001Z" fill="#003049"/>
<path d="M210.06 36.4V65.89C209.12 66.0528 208.172 66.1663 207.22 66.23C206.2 66.31 205.15 66.35 204.07 66.35C202.99 66.35 201.93 66.31 200.89 66.23C199.925 66.1668 198.963 66.0533 198.01 65.89V40.47C198.01 37.47 196.8 36.02 194.4 36.02H193.25C192.898 34.6932 192.743 33.3219 192.79 31.95C192.761 30.503 192.915 29.0581 193.25 27.65C194.58 27.54 195.81 27.45 196.93 27.38C198.05 27.31 199.08 27.26 200.01 27.26H201.69C202.832 27.1991 203.974 27.3876 205.036 27.8124C206.098 28.2372 207.055 28.8881 207.84 29.72C209.398 31.5857 210.191 33.9727 210.06 36.4ZM196.63 12.13C198.416 11.2409 200.397 10.8178 202.39 10.9C204.334 10.7924 206.27 11.2177 207.99 12.13C208.597 13.5369 208.91 15.0529 208.91 16.585C208.91 18.1171 208.597 19.6331 207.99 21.04C206.165 21.8801 204.167 22.2742 202.16 22.19C200.247 22.3025 198.339 21.9057 196.63 21.04C196.023 19.6331 195.71 18.1171 195.71 16.585C195.71 15.0529 196.023 13.5369 196.63 12.13Z" fill="#003049"/>
<path d="M237.83 42.67C237.83 39.24 236.67 37.52 234.37 37.52C233.487 37.5415 232.626 37.7931 231.87 38.25C230.956 38.7944 230.096 39.4238 229.3 40.13V65.78C228.36 65.9452 227.412 66.062 226.46 66.13C225.46 66.2 224.39 66.24 223.31 66.24C222.23 66.24 221.19 66.24 220.16 66.13C219.208 66.062 218.26 65.9452 217.32 65.78V27.41L217.86 26.88H222.31C225.59 26.88 227.74 28.49 228.76 31.71C232.4 28.3767 235.933 26.71 239.36 26.71C241.216 26.6057 243.061 27.0535 244.663 27.9967C246.265 28.9399 247.551 30.3364 248.36 32.01C252.36 28.4767 256.147 26.71 259.72 26.71C263.293 26.71 265.96 27.8233 267.72 30.05C269.589 32.6178 270.525 35.7476 270.37 38.92V56.12C270.37 59.45 271 61.99 272.29 63.73C270.374 65.4592 267.87 66.3926 265.29 66.34C262.62 66.34 260.81 65.72 259.83 64.49C258.85 63.26 258.38 61.4 258.38 58.89V42.54C258.38 39.16 257.17 37.47 254.77 37.47C253.277 37.47 251.637 38.3667 249.85 40.16V65.73C248.91 65.8952 247.962 66.012 247.01 66.08C246.01 66.15 244.94 66.19 243.86 66.19C242.78 66.19 241.72 66.19 240.67 66.08C239.708 66.0137 238.75 65.8969 237.8 65.73L237.83 42.67Z" fill="#003049"/>
<path d="M311.92 59.67C311.602 60.8844 311.111 62.0465 310.46 63.12C309.906 64.1578 309.147 65.0728 308.23 65.81C306.624 65.838 305.035 65.4835 303.594 64.7758C302.152 64.0681 300.9 63.0275 299.94 61.74C297.064 64.6221 293.181 66.2748 289.11 66.35C287.32 66.3757 285.544 66.0354 283.89 65.35C282.472 64.7584 281.192 63.88 280.13 62.77C279.105 61.7078 278.318 60.4397 277.82 59.05C277.31 57.6324 277.053 56.1365 277.06 54.63C277.014 52.6348 277.42 50.6551 278.25 48.84C279.001 47.2232 280.117 45.8027 281.51 44.69C282.952 43.5608 284.594 42.7128 286.35 42.19C288.268 41.6189 290.259 41.3358 292.26 41.35C293.44 41.35 294.48 41.35 295.37 41.35C296.26 41.35 297.05 41.41 297.71 41.46V40.07C297.71 36.8033 296.043 35.17 292.71 35.17C290.563 35.17 286.8 36.0134 281.42 37.7C279.89 35.91 278.91 33.12 278.51 29.33C279.73 28.87 281.1 28.44 282.61 28.03C284.12 27.62 285.67 27.26 287.26 26.95C288.85 26.64 290.41 26.4 291.94 26.22C293.317 26.0502 294.703 25.9601 296.09 25.95C297.845 25.9463 299.591 26.2058 301.27 26.72C302.874 27.1943 304.364 27.9906 305.65 29.06C306.948 30.1695 307.974 31.5618 308.65 33.13C309.438 35.0296 309.816 37.0742 309.76 39.13V54.67C309.78 57.03 310.5 58.67 311.92 59.67ZM288.73 53.91C288.73 56.31 290.11 57.52 292.88 57.52C294.31 57.52 295.88 56.77 297.71 55.29V49.15C296.71 49.09 295.83 49.06 295.14 49.03C294.45 49 293.92 49.03 293.57 49.03C290.343 49.0033 288.733 50.63 288.74 53.91H288.73Z" fill="#003049"/>
<path d="M328.61 11.53C329.322 13.469 329.661 15.5251 329.61 17.5901C329.655 21.2417 328.464 24.8013 326.23 27.69C323.739 30.7944 320.277 32.9711 316.4 33.8701C315.532 33.4411 314.829 32.7382 314.4 31.8701C313.925 30.9726 313.701 29.9641 313.75 28.9501V28.3301C314.553 28.1152 315.329 27.8064 316.06 27.41C316.818 27.0074 317.526 26.5174 318.17 25.9501C318.79 25.4107 319.32 24.7761 319.74 24.0701C320.15 23.3878 320.364 22.606 320.36 21.8101C319.136 21.7348 317.949 21.3642 316.9 20.7301C316.517 19.9517 316.244 19.1237 316.09 18.2701C316.013 17.556 315.976 16.8382 315.98 16.1201C315.89 14.5334 316.207 12.95 316.9 11.5201C317.833 10.9781 318.845 10.5866 319.9 10.3601C320.862 10.2009 321.835 10.124 322.81 10.1301C324.836 10.0461 326.845 10.531 328.61 11.53Z" fill="#003049"/>
<path d="M325.05 62.58C325.125 61.076 325.463 59.5968 326.05 58.21C326.565 56.8249 327.331 55.5469 328.31 54.4401C332.41 56.5901 335.96 57.67 338.99 57.67C340.137 57.7391 341.28 57.4863 342.29 56.9401C342.644 56.7415 342.938 56.4508 343.141 56.0986C343.343 55.7465 343.447 55.3462 343.44 54.9401C343.44 53.4101 342.26 52.2501 339.91 51.4901L335.68 49.8701C329.28 47.5167 326.08 43.6767 326.08 38.35C326.001 36.6057 326.32 34.8662 327.013 33.2635C327.706 31.6609 328.755 30.237 330.08 29.1C332.76 26.82 336.39 25.6801 340.94 25.6801C343.454 25.7256 345.953 26.0612 348.39 26.6801C350.695 27.1814 352.936 27.9429 355.07 28.95C355.14 30.566 354.854 32.1776 354.23 33.67C353.767 35.0928 352.915 36.3574 351.77 37.3201C347.47 35.3734 343.887 34.4001 341.02 34.4001C340.182 34.3402 339.351 34.5852 338.68 35.09C338.419 35.3041 338.211 35.5748 338.071 35.8815C337.93 36.1882 337.862 36.5229 337.87 36.86C337.87 38.09 338.87 39.06 340.79 39.78L345.55 41.47C352.357 43.87 355.76 47.99 355.76 53.83C355.827 55.5783 355.479 57.3175 354.746 58.9059C354.012 60.4943 352.914 61.8869 351.54 62.97C348.72 65.2234 344.7 66.35 339.48 66.35C334.424 66.3706 329.45 65.071 325.05 62.58Z" fill="#003049"/>
</svg>
